<svg xmlns="http://www.w3.org/2000/svg" width="400" height="400"><path d="M212,199L246,194L186,118Z" fill="#ff824d" stroke="#ff824d" stroke-width="1.51"/><path d="M246,194L244,102L186,118Z" fill="#ff804b" stroke="#ff804b" stroke-width="1.51"/><path d="M246,194L319,129L244,102Z" fill="#ff8550" stroke="#ff8550" stroke-width="1.51"/><path d="M186,118L108,148L212,199Z" fill="#ff7b47" stroke="#ff7b47" stroke-width="1.51"/><path d="M186,118L135,34L108,148Z" fill="#ff723f" stroke="#ff723f" stroke-width="1.51"/><path d="M244,102L182,42L186,118Z" fill="#ff7744" stroke="#ff7744" stroke-width="1.51"/><path d="M291,52L182,42L244,102Z" fill="#ff7946" stroke="#ff7946" stroke-width="1.51"/><path d="M319,129L291,52L244,102Z" fill="#ff814d" stroke="#ff814d" stroke-width="1.51"/><path d="M212,199L249,290L246,194Z" fill="#ff8b55" stroke="#ff8b55" stroke-width="1.51"/><path d="M246,194L351,228L319,129Z" fill="#ff8e58" stroke="#ff8e58" stroke-width="1.51"/><path d="M143,260L179,269L212,199Z" fill="#ff8751" stroke="#ff8751" stroke-width="1.51"/><path d="M91,213L143,260L212,199Z" fill="#ff814c" stroke="#ff814c" stroke-width="1.51"/><path d="M189,319L249,290L179,269Z" fill="#ff8f59" stroke="#ff8f59" stroke-width="1.51"/><path d="M179,269L249,290L212,199Z" fill="#ff8c56" stroke="#ff8c56" stroke-width="1.51"/><path d="M108,148L91,213L212,199Z" fill="#ff7b47" stroke="#ff7b47" stroke-width="1.51"/><path d="M182,42L135,34L186,118Z" fill="#ff703e" stroke="#ff703e" stroke-width="1.51"/><path d="M108,148L61,224L91,213Z" fill="#ff7643" stroke="#ff7643" stroke-width="1.51"/><path d="M186,-35L135,34L182,42Z" fill="#ff6939" stroke="#ff6939" stroke-width="1.51"/><path d="M325,280L351,228L246,194Z" fill="#ff945d" stroke="#ff945d" stroke-width="1.51"/><path d="M135,34L66,105L108,148Z" fill="#ff6c3a" stroke="#ff6c3a" stroke-width="1.51"/><path d="M249,290L325,280L246,194Z" fill="#ff925c" stroke="#ff925c" stroke-width="1.51"/><path d="M143,260L189,319L179,269Z" fill="#ff8a54" stroke="#ff8a54" stroke-width="1.51"/><path d="M249,290L331,327L325,280Z" fill="#ff9a64" stroke="#ff9a64" stroke-width="1.51"/><path d="M100,327L189,319L143,260Z" fill="#ff8954" stroke="#ff8954" stroke-width="1.51"/><path d="M91,213L61,224L143,260Z" fill="#ff7c48" stroke="#ff7c48" stroke-width="1.51"/><path d="M2,132L61,224L108,148Z" fill="#ff703e" stroke="#ff703e" stroke-width="1.51"/><path d="M291,52L296,-10L182,42Z" fill="#ff7644" stroke="#ff7644" stroke-width="1.51"/><path d="M372,2L296,-10L291,52Z" fill="#ff7c49" stroke="#ff7c49" stroke-width="1.51"/><path d="M372,2L291,52L384,13Z" fill="#ff814d" stroke="#ff814d" stroke-width="1.51"/><path d="M135,34L28,24L66,105Z" fill="#ff6334" stroke="#ff6334" stroke-width="1.51"/><path d="M296,-10L186,-35L182,42Z" fill="#ff6f3d" stroke="#ff6f3d" stroke-width="1.51"/><path d="M351,228L417,155L319,129Z" fill="#ff935c" stroke="#ff935c" stroke-width="1.51"/><path d="M412,299L397,227L351,228Z" fill="#ff9e67" stroke="#ff9e67" stroke-width="1.51"/><path d="M397,227L417,155L351,228Z" fill="#ff9963" stroke="#ff9963" stroke-width="1.51"/><path d="M300,359L331,327L249,290Z" fill="#ff9d65" stroke="#ff9d65" stroke-width="1.51"/><path d="M325,280L412,299L351,228Z" fill="#ff9d66" stroke="#ff9d66" stroke-width="1.51"/><path d="M384,13L291,52L394,21Z" fill="#ff824e" stroke="#ff824e" stroke-width="1.51"/><path d="M296,-10L211,-70L186,-35Z" fill="#ff6b3a" stroke="#ff6b3a" stroke-width="1.51"/><path d="M394,21L291,52L319,129Z" fill="#ff844f" stroke="#ff844f" stroke-width="1.51"/><path d="M189,319L300,359L249,290Z" fill="#ff9760" stroke="#ff9760" stroke-width="1.51"/><path d="M61,224L100,327L143,260Z" fill="#ff814c" stroke="#ff814c" stroke-width="1.51"/><path d="M384,13L394,-22L372,2Z" fill="#ff824d" stroke="#ff824d" stroke-width="1.51"/><path d="M417,155L394,21L319,129Z" fill="#ff8c57" stroke="#ff8c57" stroke-width="1.51"/><path d="M186,-35L129,-49L135,34Z" fill="#ff6334" stroke="#ff6334" stroke-width="1.51"/><path d="M127,-99L129,-49L186,-35Z" fill="#ff5d2f" stroke="#ff5d2f" stroke-width="1.51"/><path d="M66,105L2,132L108,148Z" fill="#ff6a39" stroke="#ff6a39" stroke-width="1.51"/><path d="M61,224L31,269L100,327Z" fill="#ff7d49" stroke="#ff7d49" stroke-width="1.51"/><path d="M-14,77L2,132L66,105Z" fill="#ff6233" stroke="#ff6233" stroke-width="1.51"/><path d="M275,-112L211,-70L296,-10Z" fill="#ff6c3a" stroke="#ff6c3a" stroke-width="1.51"/><path d="M261,420L300,359L189,319Z" fill="#ff9c65" stroke="#ff9c65" stroke-width="1.51"/><path d="M-56,227L31,269L61,224Z" fill="#ff7340" stroke="#ff7340" stroke-width="1.51"/><path d="M25,-19L28,24L135,34Z" fill="#ff5b2e" stroke="#ff5b2e" stroke-width="1.51"/><path d="M331,327L412,299L325,280Z" fill="#ffa169" stroke="#ffa169" stroke-width="1.51"/><path d="M528,226L487,107L417,155Z" fill="#ff9e67" stroke="#ff9e67" stroke-width="1.51"/><path d="M444,324L412,299L331,327Z" fill="#ffa66f" stroke="#ffa66f" stroke-width="1.51"/><path d="M372,2L357,-100L296,-10Z" fill="#ff7946" stroke="#ff7946" stroke-width="1.51"/><path d="M394,21L394,-22L384,13Z" fill="#ff834f" stroke="#ff834f" stroke-width="1.51"/><path d="M497,-37L394,-22L394,21Z" fill="#ff8651" stroke="#ff8651" stroke-width="1.51"/><path d="M28,24L-14,77L66,105Z" fill="#ff5e30" stroke="#ff5e30" stroke-width="1.51"/><path d="M-56,227L-20,284L31,269Z" fill="#ff713f" stroke="#ff713f" stroke-width="1.51"/><path d="M129,-49L25,-19L135,34Z" fill="#ff5c2f" stroke="#ff5c2f" stroke-width="1.51"/><path d="M28,24L-28,2L-14,77Z" fill="#ff5529" stroke="#ff5529" stroke-width="1.51"/><path d="M129,-49L19,-81L25,-19Z" fill="#ff5127" stroke="#ff5127" stroke-width="1.51"/><path d="M211,-70L127,-99L186,-35Z" fill="#ff6031" stroke="#ff6031" stroke-width="1.51"/><path d="M275,-112L127,-99L211,-70Z" fill="#ff6132" stroke="#ff6132" stroke-width="1.51"/><path d="M357,-100L275,-112L296,-10Z" fill="#ff703e" stroke="#ff703e" stroke-width="1.51"/><path d="M417,155L487,107L394,21Z" fill="#ff925c" stroke="#ff925c" stroke-width="1.51"/><path d="M528,226L417,155L397,227Z" fill="#ffa069" stroke="#ffa069" stroke-width="1.51"/><path d="M333,420L444,324L331,327Z" fill="#ffa870" stroke="#ffa870" stroke-width="1.51"/><path d="M176,454L261,420L189,319Z" fill="#ff9b64" stroke="#ff9b64" stroke-width="1.51"/><path d="M31,269L23,350L100,327Z" fill="#ff804c" stroke="#ff804c" stroke-width="1.51"/><path d="M100,327L143,444L189,319Z" fill="#ff905a" stroke="#ff905a" stroke-width="1.51"/><path d="M-56,227L61,224L2,132Z" fill="#ff6c3a" stroke="#ff6c3a" stroke-width="1.51"/><path d="M412,299L528,226L397,227Z" fill="#ffa46d" stroke="#ffa46d" stroke-width="1.51"/><path d="M333,420L331,327L300,359Z" fill="#ffa46d" stroke="#ffa46d" stroke-width="1.51"/><path d="M-20,284L23,350L31,269Z" fill="#ff7a46" stroke="#ff7a46" stroke-width="1.51"/><path d="M394,-22L357,-100L372,2Z" fill="#ff7d49" stroke="#ff7d49" stroke-width="1.51"/><path d="M397,-91L357,-100L394,-22Z" fill="#ff7a46" stroke="#ff7a46" stroke-width="1.51"/><path d="M-82,183L-56,227L2,132Z" fill="#ff6334" stroke="#ff6334" stroke-width="1.51"/><path d="M261,420L333,420L300,359Z" fill="#ffa56d" stroke="#ffa56d" stroke-width="1.51"/><path d="M-108,92L-82,183L2,132Z" fill="#ff5b2d" stroke="#ff5b2d" stroke-width="1.51"/><path d="M25,-19L-28,2L28,24Z" fill="#ff5227" stroke="#ff5227" stroke-width="1.51"/><path d="M19,-81L-28,2L25,-19Z" fill="#ff4c23" stroke="#ff4c23" stroke-width="1.51"/><path d="M497,-37L397,-91L394,-22Z" fill="#ff814d" stroke="#ff814d" stroke-width="1.51"/><path d="M23,350L73,413L100,327Z" fill="#ff8752" stroke="#ff8752" stroke-width="1.51"/><path d="M73,413L143,444L100,327Z" fill="#ff8f59" stroke="#ff8f59" stroke-width="1.51"/><path d="M261,420L288,474L333,420Z" fill="#ffa871" stroke="#ffa871" stroke-width="1.51"/><path d="M-108,92L2,132L-14,77Z" fill="#ff592c" stroke="#ff592c" stroke-width="1.51"/><path d="M143,444L176,454L189,319Z" fill="#ff9761" stroke="#ff9761" stroke-width="1.51"/><path d="M444,324L477,323L412,299Z" fill="#ffab74" stroke="#ffab74" stroke-width="1.51"/><path d="M499,432L477,323L444,324Z" fill="#ffb37b" stroke="#ffb37b" stroke-width="1.51"/><path d="M127,-99L19,-81L129,-49Z" fill="#ff5327" stroke="#ff5327" stroke-width="1.51"/><path d="M477,323L528,226L412,299Z" fill="#ffaa73" stroke="#ffaa73" stroke-width="1.51"/><path d="M528,226L524,40L487,107Z" fill="#ff9e67" stroke="#ff9e67" stroke-width="1.51"/><path d="M487,107L524,40L394,21Z" fill="#ff915c" stroke="#ff915c" stroke-width="1.51"/><path d="M333,420L397,457L444,324Z" fill="#ffae77" stroke="#ffae77" stroke-width="1.51"/><path d="M190,493L288,474L261,420Z" fill="#ffa56f" stroke="#ffa56f" stroke-width="1.51"/><path d="M127,-99L0,-96L19,-81Z" fill="#ff4921" stroke="#ff4921" stroke-width="1.51"/><path d="M19,-81L0,-96L-28,2Z" fill="#ff461f" stroke="#ff461f" stroke-width="1.51"/><path d="M-28,2L-85,18L-14,77Z" fill="#ff4f25" stroke="#ff4f25" stroke-width="1.51"/><path d="M-108,-138L0,-96L127,-99Z" fill="#ff3e1a" stroke="#ff3e1a" stroke-width="1.51"/><path d="M524,40L497,-37L394,21Z" fill="#ff8d57" stroke="#ff8d57" stroke-width="1.51"/><path d="M-104,-25L-85,18L-28,2Z" fill="#ff441d" stroke="#ff441d" stroke-width="1.51"/><path d="M-85,18L-108,92L-14,77Z" fill="#ff4f25" stroke="#ff4f25" stroke-width="1.51"/><path d="M477,323L531,291L528,226Z" fill="#ffae77" stroke="#ffae77" stroke-width="1.51"/><path d="M528,226L531,291L524,40Z" fill="#ffa66f" stroke="#ffa66f" stroke-width="1.51"/><path d="M499,432L531,291L477,323Z" fill="#ffb47d" stroke="#ffb47d" stroke-width="1.51"/><path d="M156,515L176,454L143,444Z" fill="#ff9d67" stroke="#ff9d67" stroke-width="1.51"/><path d="M156,515L190,493L176,454Z" fill="#ffa06a" stroke="#ffa06a" stroke-width="1.51"/><path d="M176,454L190,493L261,420Z" fill="#ffa16a" stroke="#ffa16a" stroke-width="1.51"/><path d="M-82,183L-110,243L-56,227Z" fill="#ff6434" stroke="#ff6434" stroke-width="1.51"/><path d="M-56,227L-110,243L-20,284Z" fill="#ff6a3a" stroke="#ff6a3a" stroke-width="1.51"/><path d="M-20,284L-51,364L23,350Z" fill="#ff7a46" stroke="#ff7a46" stroke-width="1.51"/><path d="M23,350L-33,439L73,413Z" fill="#ff8651" stroke="#ff8651" stroke-width="1.51"/><path d="M-108,92L-110,243L-82,183Z" fill="#ff5b2e" stroke="#ff5b2e" stroke-width="1.51"/><path d="M-114,338L-51,364L-20,284Z" fill="#ff7441" stroke="#ff7441" stroke-width="1.51"/><path d="M64,513L156,515L143,444Z" fill="#ff9b65" stroke="#ff9b65" stroke-width="1.51"/><path d="M364,491L333,420L288,474Z" fill="#ffae77" stroke="#ffae77" stroke-width="1.51"/><path d="M364,491L397,457L333,420Z" fill="#ffb27a" stroke="#ffb27a" stroke-width="1.51"/><path d="M156,515L364,491L288,474Z" fill="#ffab74" stroke="#ffab74" stroke-width="1.51"/><path d="M64,513L143,444L73,413Z" fill="#ff945e" stroke="#ff945e" stroke-width="1.51"/><path d="M190,493L156,515L288,474Z" fill="#ffa56e" stroke="#ffa56e" stroke-width="1.51"/><path d="M0,-96L-104,-25L-28,2Z" fill="#ff421d" stroke="#ff421d" stroke-width="1.51"/><path d="M-85,18L-104,-25L-108,92Z" fill="#ff451e" stroke="#ff451e" stroke-width="1.51"/><path d="M-51,364L-33,439L23,350Z" fill="#ff804b" stroke="#ff804b" stroke-width="1.51"/><path d="M-110,243L-114,338L-20,284Z" fill="#ff6d3b" stroke="#ff6d3b" stroke-width="1.51"/><path d="M-108,92L-114,338L-110,243Z" fill="#ff6132" stroke="#ff6132" stroke-width="1.51"/><path d="M-86,408L-33,439L-51,364Z" fill="#ff7e4a" stroke="#ff7e4a" stroke-width="1.51"/><path d="M397,457L499,432L444,324Z" fill="#ffb57d" stroke="#ffb57d" stroke-width="1.51"/><path d="M364,491L422,487L397,457Z" fill="#ffb780" stroke="#ffb780" stroke-width="1.51"/><path d="M504,516L422,487L364,491Z" fill="#ffbc85" stroke="#ffbc85" stroke-width="1.51"/><path d="M422,487L499,432L397,457Z" fill="#ffb982" stroke="#ffb982" stroke-width="1.51"/><path d="M-33,472L64,513L73,413Z" fill="#ff8f59" stroke="#ff8f59" stroke-width="1.51"/><path d="M524,40L499,-135L497,-37Z" fill="#ff8b56" stroke="#ff8b56" stroke-width="1.51"/><path d="M497,-37L499,-135L397,-91Z" fill="#ff814d" stroke="#ff814d" stroke-width="1.51"/><path d="M397,-91L499,-135L357,-100Z" fill="#ff7a46" stroke="#ff7a46" stroke-width="1.51"/><path d="M357,-100L499,-135L275,-112Z" fill="#ff7441" stroke="#ff7441" stroke-width="1.51"/><path d="M275,-112L-108,-138L127,-99Z" fill="#ff4d24" stroke="#ff4d24" stroke-width="1.51"/><path d="M-33,439L-33,472L73,413Z" fill="#ff8953" stroke="#ff8953" stroke-width="1.51"/><path d="M-114,338L-86,408L-51,364Z" fill="#ff7744" stroke="#ff7744" stroke-width="1.51"/><path d="M-86,408L-33,472L-33,439Z" fill="#ff824e" stroke="#ff824e" stroke-width="1.51"/><path d="M0,-96L-108,-138L-104,-25Z" fill="#ff3413" stroke="#ff3413" stroke-width="1.51"/><path d="M-104,-25L-108,-138L-108,92Z" fill="#ff3917" stroke="#ff3917" stroke-width="1.51"/><path d="M-108,92L-108,-138L-114,338Z" fill="#ff4e24" stroke="#ff4e24" stroke-width="1.51"/><path d="M499,-135L-108,-138L275,-112Z" fill="#ff5e30" stroke="#ff5e30" stroke-width="1.51"/><path d="M422,487L504,516L499,432Z" fill="#ffbf89" stroke="#ffbf89" stroke-width="1.51"/><path d="M499,432L504,516L531,291Z" fill="#ffbc85" stroke="#ffbc85" stroke-width="1.51"/><path d="M156,515L504,516L364,491Z" fill="#ffb47d" stroke="#ffb47d" stroke-width="1.51"/><path d="M-114,338L-83,504L-86,408Z" fill="#ff7b47" stroke="#ff7b47" stroke-width="1.51"/><path d="M-86,408L-83,504L-33,472Z" fill="#ff834e" stroke="#ff834e" stroke-width="1.51"/><path d="M-33,472L-83,504L64,513Z" fill="#ff8d57" stroke="#ff8d57" stroke-width="1.51"/></svg>